<mxfile host="app.diagrams.net" agent="Mozilla/5.0 (X11; Ubuntu; Linux x86_64; rv:130.0) Gecko/20100101 Firefox/130.0" version="24.7.12">
  <diagram name="Page-1" id="ovCyG_aH4pftlNssSu8f">
    <mxGraphModel dx="2177" dy="880" grid="1" gridSize="10" guides="1" tooltips="1" connect="1" arrows="1" fold="1" page="1" pageScale="1" pageWidth="850" pageHeight="1100" math="0" shadow="0">
      <root>
        <mxCell id="0" />
        <mxCell id="1" parent="0" />
        <mxCell id="f029kMLpjCxWXJ2SP4ZA-1" value="Game" style="rounded=1;whiteSpace=wrap;html=1;" vertex="1" parent="1">
          <mxGeometry x="320" y="180" width="120" height="60" as="geometry" />
        </mxCell>
        <mxCell id="f029kMLpjCxWXJ2SP4ZA-2" value="GameSettings" style="rounded=1;whiteSpace=wrap;html=1;" vertex="1" parent="1">
          <mxGeometry x="250" y="110" width="120" height="60" as="geometry" />
        </mxCell>
        <mxCell id="f029kMLpjCxWXJ2SP4ZA-3" value="GameState" style="rounded=1;whiteSpace=wrap;html=1;" vertex="1" parent="1">
          <mxGeometry x="390" y="110" width="120" height="60" as="geometry" />
        </mxCell>
        <mxCell id="f029kMLpjCxWXJ2SP4ZA-4" value="Systems" style="rounded=1;whiteSpace=wrap;html=1;" vertex="1" parent="1">
          <mxGeometry x="240" y="250" width="120" height="60" as="geometry" />
        </mxCell>
        <mxCell id="f029kMLpjCxWXJ2SP4ZA-5" value="Entities" style="rounded=1;whiteSpace=wrap;html=1;" vertex="1" parent="1">
          <mxGeometry x="400" y="250" width="120" height="60" as="geometry" />
        </mxCell>
        <mxCell id="f029kMLpjCxWXJ2SP4ZA-6" value="CanvasSystem" style="rounded=1;whiteSpace=wrap;html=1;" vertex="1" parent="1">
          <mxGeometry x="70" y="340" width="120" height="60" as="geometry" />
        </mxCell>
        <mxCell id="f029kMLpjCxWXJ2SP4ZA-7" value="UserInputSystem" style="rounded=1;whiteSpace=wrap;html=1;" vertex="1" parent="1">
          <mxGeometry x="70" y="410" width="120" height="60" as="geometry" />
        </mxCell>
        <mxCell id="f029kMLpjCxWXJ2SP4ZA-8" value="&lt;div&gt;AlienRocketSystem&lt;/div&gt;" style="rounded=1;whiteSpace=wrap;html=1;" vertex="1" parent="1">
          <mxGeometry x="70" y="480" width="120" height="60" as="geometry" />
        </mxCell>
        <mxCell id="f029kMLpjCxWXJ2SP4ZA-9" value="&lt;div&gt;CollisionSystem&lt;/div&gt;" style="rounded=1;whiteSpace=wrap;html=1;" vertex="1" parent="1">
          <mxGeometry x="70" y="550" width="120" height="60" as="geometry" />
        </mxCell>
        <mxCell id="f029kMLpjCxWXJ2SP4ZA-10" value="&lt;div&gt;GameLogicSystem&lt;/div&gt;" style="rounded=1;whiteSpace=wrap;html=1;" vertex="1" parent="1">
          <mxGeometry x="200" y="340" width="120" height="60" as="geometry" />
        </mxCell>
        <mxCell id="f029kMLpjCxWXJ2SP4ZA-11" value="&lt;div&gt;MotionSystem&lt;/div&gt;" style="rounded=1;whiteSpace=wrap;html=1;" vertex="1" parent="1">
          <mxGeometry x="200" y="410" width="120" height="60" as="geometry" />
        </mxCell>
        <mxCell id="f029kMLpjCxWXJ2SP4ZA-12" value="&lt;div&gt;RenderSystem&lt;/div&gt;" style="rounded=1;whiteSpace=wrap;html=1;" vertex="1" parent="1">
          <mxGeometry x="200" y="480" width="120" height="60" as="geometry" />
        </mxCell>
        <mxCell id="f029kMLpjCxWXJ2SP4ZA-13" value="PlayerEntity" style="rounded=1;whiteSpace=wrap;html=1;" vertex="1" parent="1">
          <mxGeometry x="570" y="340" width="120" height="60" as="geometry" />
        </mxCell>
        <mxCell id="f029kMLpjCxWXJ2SP4ZA-14" value="CanvasEntity" style="rounded=1;whiteSpace=wrap;html=1;" vertex="1" parent="1">
          <mxGeometry x="440" y="340" width="120" height="60" as="geometry" />
        </mxCell>
        <mxCell id="f029kMLpjCxWXJ2SP4ZA-15" value="PlayerRocketEntities" style="rounded=1;whiteSpace=wrap;html=1;" vertex="1" parent="1">
          <mxGeometry x="570" y="410" width="120" height="60" as="geometry" />
        </mxCell>
        <mxCell id="f029kMLpjCxWXJ2SP4ZA-16" value="AlienEntities" style="rounded=1;whiteSpace=wrap;html=1;" vertex="1" parent="1">
          <mxGeometry x="570" y="480" width="120" height="60" as="geometry" />
        </mxCell>
        <mxCell id="f029kMLpjCxWXJ2SP4ZA-17" value="AlienRocketEntities" style="rounded=1;whiteSpace=wrap;html=1;" vertex="1" parent="1">
          <mxGeometry x="570" y="550" width="120" height="60" as="geometry" />
        </mxCell>
        <mxCell id="f029kMLpjCxWXJ2SP4ZA-18" value="AlienSaucerEntity" style="rounded=1;whiteSpace=wrap;html=1;" vertex="1" parent="1">
          <mxGeometry x="570" y="620" width="120" height="60" as="geometry" />
        </mxCell>
        <mxCell id="f029kMLpjCxWXJ2SP4ZA-19" value="ShieldEntity" style="rounded=1;whiteSpace=wrap;html=1;" vertex="1" parent="1">
          <mxGeometry x="440" y="410" width="120" height="60" as="geometry" />
        </mxCell>
        <mxCell id="f029kMLpjCxWXJ2SP4ZA-20" value="FinishLineEntity" style="rounded=1;whiteSpace=wrap;html=1;" vertex="1" parent="1">
          <mxGeometry x="440" y="480" width="120" height="60" as="geometry" />
        </mxCell>
        <mxCell id="f029kMLpjCxWXJ2SP4ZA-21" value="CeilingLineEntity" style="rounded=1;whiteSpace=wrap;html=1;" vertex="1" parent="1">
          <mxGeometry x="440" y="550" width="120" height="60" as="geometry" />
        </mxCell>
        <mxCell id="f029kMLpjCxWXJ2SP4ZA-24" value="" style="endArrow=none;html=1;rounded=0;" edge="1" parent="1">
          <mxGeometry width="50" height="50" relative="1" as="geometry">
            <mxPoint x="380" y="670" as="sourcePoint" />
            <mxPoint x="380" y="250" as="targetPoint" />
          </mxGeometry>
        </mxCell>
        <mxCell id="f029kMLpjCxWXJ2SP4ZA-73" style="edgeStyle=orthogonalEdgeStyle;rounded=0;orthogonalLoop=1;jettySize=auto;html=1;exitX=0;exitY=0.5;exitDx=0;exitDy=0;entryX=1;entryY=0.5;entryDx=0;entryDy=0;" edge="1" parent="1" source="f029kMLpjCxWXJ2SP4ZA-25" target="f029kMLpjCxWXJ2SP4ZA-72">
          <mxGeometry relative="1" as="geometry" />
        </mxCell>
        <mxCell id="f029kMLpjCxWXJ2SP4ZA-25" value="CanvasSystem" style="rounded=1;whiteSpace=wrap;html=1;" vertex="1" parent="1">
          <mxGeometry x="120" y="760" width="120" height="60" as="geometry" />
        </mxCell>
        <mxCell id="f029kMLpjCxWXJ2SP4ZA-74" style="edgeStyle=orthogonalEdgeStyle;rounded=0;orthogonalLoop=1;jettySize=auto;html=1;exitX=0;exitY=0.5;exitDx=0;exitDy=0;entryX=1;entryY=0.5;entryDx=0;entryDy=0;" edge="1" parent="1" source="f029kMLpjCxWXJ2SP4ZA-26" target="f029kMLpjCxWXJ2SP4ZA-72">
          <mxGeometry relative="1" as="geometry" />
        </mxCell>
        <mxCell id="f029kMLpjCxWXJ2SP4ZA-26" value="UserInputSystem" style="rounded=1;whiteSpace=wrap;html=1;" vertex="1" parent="1">
          <mxGeometry x="120" y="830" width="120" height="60" as="geometry" />
        </mxCell>
        <mxCell id="f029kMLpjCxWXJ2SP4ZA-75" style="edgeStyle=orthogonalEdgeStyle;rounded=0;orthogonalLoop=1;jettySize=auto;html=1;exitX=0;exitY=0.5;exitDx=0;exitDy=0;entryX=1;entryY=0.5;entryDx=0;entryDy=0;" edge="1" parent="1" source="f029kMLpjCxWXJ2SP4ZA-27" target="f029kMLpjCxWXJ2SP4ZA-72">
          <mxGeometry relative="1" as="geometry" />
        </mxCell>
        <mxCell id="f029kMLpjCxWXJ2SP4ZA-27" value="&lt;div&gt;AlienRocketSystem&lt;/div&gt;" style="rounded=1;whiteSpace=wrap;html=1;" vertex="1" parent="1">
          <mxGeometry x="120" y="900" width="120" height="60" as="geometry" />
        </mxCell>
        <mxCell id="f029kMLpjCxWXJ2SP4ZA-76" style="edgeStyle=orthogonalEdgeStyle;rounded=0;orthogonalLoop=1;jettySize=auto;html=1;exitX=0;exitY=0.5;exitDx=0;exitDy=0;entryX=1;entryY=0.5;entryDx=0;entryDy=0;" edge="1" parent="1" source="f029kMLpjCxWXJ2SP4ZA-28" target="f029kMLpjCxWXJ2SP4ZA-72">
          <mxGeometry relative="1" as="geometry" />
        </mxCell>
        <mxCell id="f029kMLpjCxWXJ2SP4ZA-28" value="&lt;div&gt;CollisionSystem&lt;/div&gt;" style="rounded=1;whiteSpace=wrap;html=1;" vertex="1" parent="1">
          <mxGeometry x="120" y="970" width="120" height="60" as="geometry" />
        </mxCell>
        <mxCell id="f029kMLpjCxWXJ2SP4ZA-77" style="edgeStyle=orthogonalEdgeStyle;rounded=0;orthogonalLoop=1;jettySize=auto;html=1;exitX=0;exitY=0.5;exitDx=0;exitDy=0;entryX=1;entryY=0.5;entryDx=0;entryDy=0;" edge="1" parent="1" source="f029kMLpjCxWXJ2SP4ZA-29" target="f029kMLpjCxWXJ2SP4ZA-72">
          <mxGeometry relative="1" as="geometry" />
        </mxCell>
        <mxCell id="f029kMLpjCxWXJ2SP4ZA-29" value="&lt;div&gt;GameLogicSystem&lt;/div&gt;" style="rounded=1;whiteSpace=wrap;html=1;" vertex="1" parent="1">
          <mxGeometry x="120" y="1040" width="120" height="60" as="geometry" />
        </mxCell>
        <mxCell id="f029kMLpjCxWXJ2SP4ZA-78" style="edgeStyle=orthogonalEdgeStyle;rounded=0;orthogonalLoop=1;jettySize=auto;html=1;exitX=0;exitY=0.5;exitDx=0;exitDy=0;entryX=1;entryY=0.5;entryDx=0;entryDy=0;" edge="1" parent="1" source="f029kMLpjCxWXJ2SP4ZA-30" target="f029kMLpjCxWXJ2SP4ZA-72">
          <mxGeometry relative="1" as="geometry" />
        </mxCell>
        <mxCell id="f029kMLpjCxWXJ2SP4ZA-30" value="&lt;div&gt;MotionSystem&lt;/div&gt;" style="rounded=1;whiteSpace=wrap;html=1;" vertex="1" parent="1">
          <mxGeometry x="120" y="1110" width="120" height="60" as="geometry" />
        </mxCell>
        <mxCell id="f029kMLpjCxWXJ2SP4ZA-79" style="edgeStyle=orthogonalEdgeStyle;rounded=0;orthogonalLoop=1;jettySize=auto;html=1;exitX=0;exitY=0.5;exitDx=0;exitDy=0;entryX=1;entryY=0.5;entryDx=0;entryDy=0;" edge="1" parent="1" source="f029kMLpjCxWXJ2SP4ZA-31" target="f029kMLpjCxWXJ2SP4ZA-72">
          <mxGeometry relative="1" as="geometry" />
        </mxCell>
        <mxCell id="f029kMLpjCxWXJ2SP4ZA-31" value="&lt;div&gt;RenderSystem&lt;/div&gt;" style="rounded=1;whiteSpace=wrap;html=1;" vertex="1" parent="1">
          <mxGeometry x="120" y="1180" width="120" height="60" as="geometry" />
        </mxCell>
        <mxCell id="f029kMLpjCxWXJ2SP4ZA-72" value="&lt;i&gt;System&lt;/i&gt;" style="rounded=1;whiteSpace=wrap;html=1;" vertex="1" parent="1">
          <mxGeometry x="-110" y="760" width="120" height="60" as="geometry" />
        </mxCell>
        <mxCell id="f029kMLpjCxWXJ2SP4ZA-118" value="PlayerEntity" style="rounded=1;whiteSpace=wrap;html=1;" vertex="1" parent="1">
          <mxGeometry x="120" y="1840" width="120" height="60" as="geometry" />
        </mxCell>
        <mxCell id="f029kMLpjCxWXJ2SP4ZA-119" value="CanvasEntity" style="rounded=1;whiteSpace=wrap;html=1;" vertex="1" parent="1">
          <mxGeometry x="120" y="1560" width="120" height="60" as="geometry" />
        </mxCell>
        <mxCell id="f029kMLpjCxWXJ2SP4ZA-120" value="PlayerRocketEntities" style="rounded=1;whiteSpace=wrap;html=1;" vertex="1" parent="1">
          <mxGeometry x="120" y="1910" width="120" height="60" as="geometry" />
        </mxCell>
        <mxCell id="f029kMLpjCxWXJ2SP4ZA-121" value="AlienEntities" style="rounded=1;whiteSpace=wrap;html=1;" vertex="1" parent="1">
          <mxGeometry x="120" y="1980" width="120" height="60" as="geometry" />
        </mxCell>
        <mxCell id="f029kMLpjCxWXJ2SP4ZA-122" value="AlienRocketEntities" style="rounded=1;whiteSpace=wrap;html=1;" vertex="1" parent="1">
          <mxGeometry x="120" y="2050" width="120" height="60" as="geometry" />
        </mxCell>
        <mxCell id="f029kMLpjCxWXJ2SP4ZA-123" value="AlienSaucerEntity" style="rounded=1;whiteSpace=wrap;html=1;" vertex="1" parent="1">
          <mxGeometry x="120" y="2120" width="120" height="60" as="geometry" />
        </mxCell>
        <mxCell id="f029kMLpjCxWXJ2SP4ZA-124" value="ShieldEntity" style="rounded=1;whiteSpace=wrap;html=1;" vertex="1" parent="1">
          <mxGeometry x="120" y="1630" width="120" height="60" as="geometry" />
        </mxCell>
        <mxCell id="f029kMLpjCxWXJ2SP4ZA-125" value="FinishLineEntity" style="rounded=1;whiteSpace=wrap;html=1;" vertex="1" parent="1">
          <mxGeometry x="120" y="1700" width="120" height="60" as="geometry" />
        </mxCell>
        <mxCell id="f029kMLpjCxWXJ2SP4ZA-126" value="CeilingLineEntity" style="rounded=1;whiteSpace=wrap;html=1;" vertex="1" parent="1">
          <mxGeometry x="120" y="1770" width="120" height="60" as="geometry" />
        </mxCell>
        <mxCell id="f029kMLpjCxWXJ2SP4ZA-127" value="CanvasComponent" style="rounded=1;whiteSpace=wrap;html=1;" vertex="1" parent="1">
          <mxGeometry x="520" y="1560" width="150" height="40" as="geometry" />
        </mxCell>
        <mxCell id="f029kMLpjCxWXJ2SP4ZA-128" value="" style="endArrow=none;dashed=1;html=1;rounded=0;entryX=0;entryY=0.5;entryDx=0;entryDy=0;exitX=1;exitY=0.5;exitDx=0;exitDy=0;edgeStyle=orthogonalEdgeStyle;curved=1;" edge="1" parent="1" source="f029kMLpjCxWXJ2SP4ZA-119" target="f029kMLpjCxWXJ2SP4ZA-127">
          <mxGeometry width="50" height="50" relative="1" as="geometry">
            <mxPoint x="280" y="1540" as="sourcePoint" />
            <mxPoint x="560" y="1810" as="targetPoint" />
          </mxGeometry>
        </mxCell>
        <mxCell id="f029kMLpjCxWXJ2SP4ZA-129" value="ExtentComponent" style="rounded=1;whiteSpace=wrap;html=1;" vertex="1" parent="1">
          <mxGeometry x="520" y="1610" width="150" height="40" as="geometry" />
        </mxCell>
        <mxCell id="f029kMLpjCxWXJ2SP4ZA-130" value="ShieldComponent" style="rounded=1;whiteSpace=wrap;html=1;" vertex="1" parent="1">
          <mxGeometry x="520" y="1710" width="150" height="40" as="geometry" />
        </mxCell>
        <mxCell id="f029kMLpjCxWXJ2SP4ZA-131" value="PositionComponent" style="rounded=1;whiteSpace=wrap;html=1;" vertex="1" parent="1">
          <mxGeometry x="520" y="1660" width="150" height="40" as="geometry" />
        </mxCell>
        <mxCell id="f029kMLpjCxWXJ2SP4ZA-132" value="" style="endArrow=none;dashed=1;html=1;rounded=0;entryX=0;entryY=0.5;entryDx=0;entryDy=0;exitX=1;exitY=0.5;exitDx=0;exitDy=0;edgeStyle=orthogonalEdgeStyle;curved=1;strokeWidth=2;fillColor=#0050ef;strokeColor=#001DBC;" edge="1" parent="1" source="f029kMLpjCxWXJ2SP4ZA-124" target="f029kMLpjCxWXJ2SP4ZA-129">
          <mxGeometry width="50" height="50" relative="1" as="geometry">
            <mxPoint x="240" y="1635" as="sourcePoint" />
            <mxPoint x="520" y="1625" as="targetPoint" />
          </mxGeometry>
        </mxCell>
        <mxCell id="f029kMLpjCxWXJ2SP4ZA-133" value="" style="endArrow=none;dashed=1;html=1;rounded=0;entryX=0;entryY=0.5;entryDx=0;entryDy=0;exitX=1;exitY=0.5;exitDx=0;exitDy=0;edgeStyle=orthogonalEdgeStyle;curved=1;fillColor=#e51400;strokeColor=#B20000;strokeWidth=2;" edge="1" parent="1" source="f029kMLpjCxWXJ2SP4ZA-124" target="f029kMLpjCxWXJ2SP4ZA-131">
          <mxGeometry width="50" height="50" relative="1" as="geometry">
            <mxPoint x="240" y="1620" as="sourcePoint" />
            <mxPoint x="520" y="1660" as="targetPoint" />
          </mxGeometry>
        </mxCell>
        <mxCell id="f029kMLpjCxWXJ2SP4ZA-134" value="" style="endArrow=none;dashed=1;html=1;rounded=0;entryX=0;entryY=0.5;entryDx=0;entryDy=0;exitX=1;exitY=0.5;exitDx=0;exitDy=0;edgeStyle=orthogonalEdgeStyle;curved=1;" edge="1" parent="1" source="f029kMLpjCxWXJ2SP4ZA-124" target="f029kMLpjCxWXJ2SP4ZA-130">
          <mxGeometry width="50" height="50" relative="1" as="geometry">
            <mxPoint x="240" y="1615" as="sourcePoint" />
            <mxPoint x="520" y="1705" as="targetPoint" />
          </mxGeometry>
        </mxCell>
        <mxCell id="f029kMLpjCxWXJ2SP4ZA-135" value="FinishLineComponent" style="rounded=1;whiteSpace=wrap;html=1;" vertex="1" parent="1">
          <mxGeometry x="520" y="1760" width="150" height="40" as="geometry" />
        </mxCell>
        <mxCell id="f029kMLpjCxWXJ2SP4ZA-136" value="" style="endArrow=none;dashed=1;html=1;rounded=0;entryX=0;entryY=0.5;entryDx=0;entryDy=0;exitX=1;exitY=0.5;exitDx=0;exitDy=0;edgeStyle=orthogonalEdgeStyle;curved=1;" edge="1" parent="1" source="f029kMLpjCxWXJ2SP4ZA-125" target="f029kMLpjCxWXJ2SP4ZA-135">
          <mxGeometry width="50" height="50" relative="1" as="geometry">
            <mxPoint x="260" y="1780" as="sourcePoint" />
            <mxPoint x="540" y="1850" as="targetPoint" />
          </mxGeometry>
        </mxCell>
        <mxCell id="f029kMLpjCxWXJ2SP4ZA-137" value="" style="endArrow=none;dashed=1;html=1;rounded=0;entryX=0;entryY=0.5;entryDx=0;entryDy=0;exitX=1;exitY=0.5;exitDx=0;exitDy=0;edgeStyle=orthogonalEdgeStyle;curved=1;strokeWidth=2;fillColor=#0050ef;strokeColor=#001DBC;" edge="1" parent="1" source="f029kMLpjCxWXJ2SP4ZA-125" target="f029kMLpjCxWXJ2SP4ZA-129">
          <mxGeometry width="50" height="50" relative="1" as="geometry">
            <mxPoint x="230" y="1750" as="sourcePoint" />
            <mxPoint x="510" y="1800" as="targetPoint" />
          </mxGeometry>
        </mxCell>
        <mxCell id="f029kMLpjCxWXJ2SP4ZA-138" value="CeilingLineComponent" style="rounded=1;whiteSpace=wrap;html=1;" vertex="1" parent="1">
          <mxGeometry x="520" y="1810" width="150" height="40" as="geometry" />
        </mxCell>
        <mxCell id="f029kMLpjCxWXJ2SP4ZA-139" value="" style="endArrow=none;dashed=1;html=1;rounded=0;entryX=0;entryY=0.5;entryDx=0;entryDy=0;exitX=1;exitY=0.5;exitDx=0;exitDy=0;edgeStyle=orthogonalEdgeStyle;curved=1;" edge="1" parent="1" source="f029kMLpjCxWXJ2SP4ZA-126" target="f029kMLpjCxWXJ2SP4ZA-138">
          <mxGeometry width="50" height="50" relative="1" as="geometry">
            <mxPoint x="240" y="1820" as="sourcePoint" />
            <mxPoint x="520" y="1870" as="targetPoint" />
          </mxGeometry>
        </mxCell>
        <mxCell id="f029kMLpjCxWXJ2SP4ZA-140" value="" style="endArrow=none;dashed=1;html=1;rounded=0;entryX=0;entryY=0.5;entryDx=0;entryDy=0;exitX=1;exitY=0.5;exitDx=0;exitDy=0;edgeStyle=orthogonalEdgeStyle;curved=1;strokeWidth=2;fillColor=#0050ef;strokeColor=#001DBC;" edge="1" parent="1" source="f029kMLpjCxWXJ2SP4ZA-126" target="f029kMLpjCxWXJ2SP4ZA-129">
          <mxGeometry width="50" height="50" relative="1" as="geometry">
            <mxPoint x="230" y="1840" as="sourcePoint" />
            <mxPoint x="510" y="1870" as="targetPoint" />
          </mxGeometry>
        </mxCell>
        <mxCell id="f029kMLpjCxWXJ2SP4ZA-141" value="PlayerComponent" style="rounded=1;whiteSpace=wrap;html=1;" vertex="1" parent="1">
          <mxGeometry x="520" y="1860" width="150" height="40" as="geometry" />
        </mxCell>
        <mxCell id="f029kMLpjCxWXJ2SP4ZA-142" value="" style="endArrow=none;dashed=1;html=1;rounded=0;entryX=0;entryY=0.5;entryDx=0;entryDy=0;exitX=1;exitY=0.5;exitDx=0;exitDy=0;edgeStyle=orthogonalEdgeStyle;curved=1;" edge="1" parent="1" source="f029kMLpjCxWXJ2SP4ZA-118" target="f029kMLpjCxWXJ2SP4ZA-141">
          <mxGeometry width="50" height="50" relative="1" as="geometry">
            <mxPoint x="230" y="1850" as="sourcePoint" />
            <mxPoint x="510" y="1880" as="targetPoint" />
          </mxGeometry>
        </mxCell>
        <mxCell id="f029kMLpjCxWXJ2SP4ZA-143" value="" style="endArrow=none;dashed=1;html=1;rounded=0;entryX=0;entryY=0.5;entryDx=0;entryDy=0;exitX=1;exitY=0.5;exitDx=0;exitDy=0;edgeStyle=orthogonalEdgeStyle;curved=1;strokeWidth=2;fillColor=#0050ef;strokeColor=#001DBC;" edge="1" parent="1" source="f029kMLpjCxWXJ2SP4ZA-118" target="f029kMLpjCxWXJ2SP4ZA-129">
          <mxGeometry width="50" height="50" relative="1" as="geometry">
            <mxPoint x="240" y="1860" as="sourcePoint" />
            <mxPoint x="520" y="1870" as="targetPoint" />
          </mxGeometry>
        </mxCell>
        <mxCell id="f029kMLpjCxWXJ2SP4ZA-144" value="" style="endArrow=none;dashed=1;html=1;rounded=0;entryX=0;entryY=0.5;entryDx=0;entryDy=0;exitX=1;exitY=0.5;exitDx=0;exitDy=0;edgeStyle=orthogonalEdgeStyle;curved=1;fillColor=#e51400;strokeColor=#B20000;strokeWidth=2;" edge="1" parent="1" source="f029kMLpjCxWXJ2SP4ZA-118" target="f029kMLpjCxWXJ2SP4ZA-131">
          <mxGeometry width="50" height="50" relative="1" as="geometry">
            <mxPoint x="250" y="1890" as="sourcePoint" />
            <mxPoint x="530" y="1650" as="targetPoint" />
          </mxGeometry>
        </mxCell>
        <mxCell id="f029kMLpjCxWXJ2SP4ZA-145" value="PlayerRocketComponent" style="rounded=1;whiteSpace=wrap;html=1;" vertex="1" parent="1">
          <mxGeometry x="520" y="1910" width="150" height="40" as="geometry" />
        </mxCell>
        <mxCell id="f029kMLpjCxWXJ2SP4ZA-146" value="" style="endArrow=none;dashed=1;html=1;rounded=0;entryX=0;entryY=0.5;entryDx=0;entryDy=0;exitX=1;exitY=0.5;exitDx=0;exitDy=0;edgeStyle=orthogonalEdgeStyle;curved=1;" edge="1" parent="1" source="f029kMLpjCxWXJ2SP4ZA-120" target="f029kMLpjCxWXJ2SP4ZA-145">
          <mxGeometry width="50" height="50" relative="1" as="geometry">
            <mxPoint x="230" y="1925" as="sourcePoint" />
            <mxPoint x="510" y="1935" as="targetPoint" />
          </mxGeometry>
        </mxCell>
        <mxCell id="f029kMLpjCxWXJ2SP4ZA-148" value="" style="endArrow=none;dashed=1;html=1;rounded=0;entryX=0;entryY=0.5;entryDx=0;entryDy=0;exitX=1;exitY=0.5;exitDx=0;exitDy=0;edgeStyle=orthogonalEdgeStyle;curved=1;strokeWidth=2;fillColor=#0050ef;strokeColor=#001DBC;" edge="1" parent="1" source="f029kMLpjCxWXJ2SP4ZA-120" target="f029kMLpjCxWXJ2SP4ZA-129">
          <mxGeometry width="50" height="50" relative="1" as="geometry">
            <mxPoint x="240" y="1920" as="sourcePoint" />
            <mxPoint x="520" y="1910" as="targetPoint" />
          </mxGeometry>
        </mxCell>
        <mxCell id="f029kMLpjCxWXJ2SP4ZA-149" value="" style="endArrow=none;dashed=1;html=1;rounded=0;entryX=0;entryY=0.5;entryDx=0;entryDy=0;exitX=1;exitY=0.5;exitDx=0;exitDy=0;edgeStyle=orthogonalEdgeStyle;curved=1;strokeWidth=2;fillColor=#e51400;strokeColor=#B20000;" edge="1" parent="1" source="f029kMLpjCxWXJ2SP4ZA-120" target="f029kMLpjCxWXJ2SP4ZA-131">
          <mxGeometry width="50" height="50" relative="1" as="geometry">
            <mxPoint x="260" y="1950" as="sourcePoint" />
            <mxPoint x="540" y="1640" as="targetPoint" />
          </mxGeometry>
        </mxCell>
        <mxCell id="f029kMLpjCxWXJ2SP4ZA-150" value="AlienImgComponent" style="rounded=1;whiteSpace=wrap;html=1;" vertex="1" parent="1">
          <mxGeometry x="520" y="2010" width="150" height="40" as="geometry" />
        </mxCell>
        <mxCell id="f029kMLpjCxWXJ2SP4ZA-151" style="edgeStyle=orthogonalEdgeStyle;rounded=0;orthogonalLoop=1;jettySize=auto;html=1;exitX=0;exitY=0.5;exitDx=0;exitDy=0;entryX=1;entryY=0.5;entryDx=0;entryDy=0;" edge="1" source="f029kMLpjCxWXJ2SP4ZA-152" target="f029kMLpjCxWXJ2SP4ZA-150" parent="1">
          <mxGeometry relative="1" as="geometry" />
        </mxCell>
        <mxCell id="f029kMLpjCxWXJ2SP4ZA-152" value="AlienOneImgComponent" style="rounded=1;whiteSpace=wrap;html=1;" vertex="1" parent="1">
          <mxGeometry x="750" y="1960" width="150" height="40" as="geometry" />
        </mxCell>
        <mxCell id="f029kMLpjCxWXJ2SP4ZA-153" style="edgeStyle=orthogonalEdgeStyle;rounded=0;orthogonalLoop=1;jettySize=auto;html=1;exitX=0;exitY=0.5;exitDx=0;exitDy=0;" edge="1" source="f029kMLpjCxWXJ2SP4ZA-154" parent="1">
          <mxGeometry relative="1" as="geometry">
            <mxPoint x="670" y="2030.2857142857142" as="targetPoint" />
          </mxGeometry>
        </mxCell>
        <mxCell id="f029kMLpjCxWXJ2SP4ZA-154" value="AlienTwoImgComponent" style="rounded=1;whiteSpace=wrap;html=1;" vertex="1" parent="1">
          <mxGeometry x="750" y="2010" width="150" height="40" as="geometry" />
        </mxCell>
        <mxCell id="f029kMLpjCxWXJ2SP4ZA-155" style="edgeStyle=orthogonalEdgeStyle;rounded=0;orthogonalLoop=1;jettySize=auto;html=1;exitX=0;exitY=0.5;exitDx=0;exitDy=0;entryX=1;entryY=0.5;entryDx=0;entryDy=0;" edge="1" source="f029kMLpjCxWXJ2SP4ZA-156" target="f029kMLpjCxWXJ2SP4ZA-150" parent="1">
          <mxGeometry relative="1" as="geometry" />
        </mxCell>
        <mxCell id="f029kMLpjCxWXJ2SP4ZA-156" value="AlienThreeImgComponent" style="rounded=1;whiteSpace=wrap;html=1;" vertex="1" parent="1">
          <mxGeometry x="750" y="2060" width="150" height="40" as="geometry" />
        </mxCell>
        <mxCell id="f029kMLpjCxWXJ2SP4ZA-157" value="" style="endArrow=none;dashed=1;html=1;rounded=0;entryX=0;entryY=0.5;entryDx=0;entryDy=0;exitX=1;exitY=0.5;exitDx=0;exitDy=0;edgeStyle=orthogonalEdgeStyle;curved=1;" edge="1" parent="1" source="f029kMLpjCxWXJ2SP4ZA-121" target="f029kMLpjCxWXJ2SP4ZA-150">
          <mxGeometry width="50" height="50" relative="1" as="geometry">
            <mxPoint x="240" y="1985" as="sourcePoint" />
            <mxPoint x="520" y="1975" as="targetPoint" />
          </mxGeometry>
        </mxCell>
        <mxCell id="f029kMLpjCxWXJ2SP4ZA-158" value="" style="endArrow=none;dashed=1;html=1;rounded=0;entryX=0;entryY=0.5;entryDx=0;entryDy=0;exitX=1;exitY=0.5;exitDx=0;exitDy=0;edgeStyle=orthogonalEdgeStyle;curved=1;strokeWidth=2;fillColor=#0050ef;strokeColor=#001DBC;" edge="1" parent="1" source="f029kMLpjCxWXJ2SP4ZA-121" target="f029kMLpjCxWXJ2SP4ZA-129">
          <mxGeometry width="50" height="50" relative="1" as="geometry">
            <mxPoint x="240" y="1990" as="sourcePoint" />
            <mxPoint x="520" y="2010" as="targetPoint" />
          </mxGeometry>
        </mxCell>
        <mxCell id="f029kMLpjCxWXJ2SP4ZA-159" value="" style="endArrow=none;dashed=1;html=1;rounded=0;entryX=0;entryY=0.5;entryDx=0;entryDy=0;exitX=1;exitY=0.5;exitDx=0;exitDy=0;edgeStyle=orthogonalEdgeStyle;curved=1;fillColor=#e51400;strokeColor=#B20000;strokeWidth=2;" edge="1" parent="1" source="f029kMLpjCxWXJ2SP4ZA-121" target="f029kMLpjCxWXJ2SP4ZA-131">
          <mxGeometry width="50" height="50" relative="1" as="geometry">
            <mxPoint x="250" y="2020" as="sourcePoint" />
            <mxPoint x="530" y="1640" as="targetPoint" />
          </mxGeometry>
        </mxCell>
        <mxCell id="f029kMLpjCxWXJ2SP4ZA-160" value="AlienRocketComponent" style="rounded=1;whiteSpace=wrap;html=1;" vertex="1" parent="1">
          <mxGeometry x="520" y="2160" width="150" height="40" as="geometry" />
        </mxCell>
        <mxCell id="f029kMLpjCxWXJ2SP4ZA-161" style="edgeStyle=orthogonalEdgeStyle;rounded=0;orthogonalLoop=1;jettySize=auto;html=1;exitX=0;exitY=0.5;exitDx=0;exitDy=0;entryX=1;entryY=0.5;entryDx=0;entryDy=0;" edge="1" source="f029kMLpjCxWXJ2SP4ZA-162" target="f029kMLpjCxWXJ2SP4ZA-160" parent="1">
          <mxGeometry relative="1" as="geometry" />
        </mxCell>
        <mxCell id="f029kMLpjCxWXJ2SP4ZA-162" value="AlienPlungerShotComponent" style="rounded=1;whiteSpace=wrap;html=1;" vertex="1" parent="1">
          <mxGeometry x="750" y="2110" width="170" height="40" as="geometry" />
        </mxCell>
        <mxCell id="f029kMLpjCxWXJ2SP4ZA-163" style="edgeStyle=orthogonalEdgeStyle;rounded=0;orthogonalLoop=1;jettySize=auto;html=1;exitX=0;exitY=0.5;exitDx=0;exitDy=0;entryX=1;entryY=0.5;entryDx=0;entryDy=0;" edge="1" source="f029kMLpjCxWXJ2SP4ZA-164" target="f029kMLpjCxWXJ2SP4ZA-160" parent="1">
          <mxGeometry relative="1" as="geometry" />
        </mxCell>
        <mxCell id="f029kMLpjCxWXJ2SP4ZA-164" value="AlienRollingShotComponent" style="rounded=1;whiteSpace=wrap;html=1;" vertex="1" parent="1">
          <mxGeometry x="750" y="2160" width="170" height="40" as="geometry" />
        </mxCell>
        <mxCell id="f029kMLpjCxWXJ2SP4ZA-165" style="edgeStyle=orthogonalEdgeStyle;rounded=0;orthogonalLoop=1;jettySize=auto;html=1;exitX=0;exitY=0.5;exitDx=0;exitDy=0;entryX=1;entryY=0.5;entryDx=0;entryDy=0;" edge="1" source="f029kMLpjCxWXJ2SP4ZA-166" target="f029kMLpjCxWXJ2SP4ZA-160" parent="1">
          <mxGeometry relative="1" as="geometry" />
        </mxCell>
        <mxCell id="f029kMLpjCxWXJ2SP4ZA-166" value="AlienSquiglyShotComponent" style="rounded=1;whiteSpace=wrap;html=1;" vertex="1" parent="1">
          <mxGeometry x="750" y="2210" width="170" height="40" as="geometry" />
        </mxCell>
        <mxCell id="f029kMLpjCxWXJ2SP4ZA-167" value="" style="endArrow=none;dashed=1;html=1;rounded=0;entryX=0;entryY=0.5;entryDx=0;entryDy=0;exitX=1;exitY=0.5;exitDx=0;exitDy=0;edgeStyle=orthogonalEdgeStyle;curved=1;" edge="1" parent="1" source="f029kMLpjCxWXJ2SP4ZA-122" target="f029kMLpjCxWXJ2SP4ZA-160">
          <mxGeometry width="50" height="50" relative="1" as="geometry">
            <mxPoint x="230" y="2050" as="sourcePoint" />
            <mxPoint x="510" y="2070" as="targetPoint" />
          </mxGeometry>
        </mxCell>
        <mxCell id="f029kMLpjCxWXJ2SP4ZA-168" value="" style="endArrow=none;dashed=1;html=1;rounded=0;entryX=0;entryY=0.5;entryDx=0;entryDy=0;exitX=1;exitY=0.5;exitDx=0;exitDy=0;edgeStyle=orthogonalEdgeStyle;curved=1;strokeWidth=2;fillColor=#e51400;strokeColor=#B20000;" edge="1" parent="1" source="f029kMLpjCxWXJ2SP4ZA-122" target="f029kMLpjCxWXJ2SP4ZA-131">
          <mxGeometry width="50" height="50" relative="1" as="geometry">
            <mxPoint x="260" y="2060" as="sourcePoint" />
            <mxPoint x="540" y="2160" as="targetPoint" />
          </mxGeometry>
        </mxCell>
        <mxCell id="f029kMLpjCxWXJ2SP4ZA-169" value="" style="endArrow=none;dashed=1;html=1;rounded=0;entryX=0;entryY=0.5;entryDx=0;entryDy=0;exitX=1;exitY=0.5;exitDx=0;exitDy=0;edgeStyle=orthogonalEdgeStyle;curved=1;strokeWidth=2;fillColor=#0050ef;strokeColor=#001DBC;" edge="1" parent="1" source="f029kMLpjCxWXJ2SP4ZA-122" target="f029kMLpjCxWXJ2SP4ZA-129">
          <mxGeometry width="50" height="50" relative="1" as="geometry">
            <mxPoint x="260" y="2090" as="sourcePoint" />
            <mxPoint x="540" y="1690" as="targetPoint" />
          </mxGeometry>
        </mxCell>
        <mxCell id="f029kMLpjCxWXJ2SP4ZA-170" value="AlienSaucerImgComponent" style="rounded=1;whiteSpace=wrap;html=1;" vertex="1" parent="1">
          <mxGeometry x="520" y="2260" width="170" height="40" as="geometry" />
        </mxCell>
        <mxCell id="f029kMLpjCxWXJ2SP4ZA-172" value="" style="endArrow=none;dashed=1;html=1;rounded=0;entryX=0;entryY=0.5;entryDx=0;entryDy=0;exitX=1;exitY=0.5;exitDx=0;exitDy=0;edgeStyle=orthogonalEdgeStyle;curved=1;" edge="1" parent="1" source="f029kMLpjCxWXJ2SP4ZA-123" target="f029kMLpjCxWXJ2SP4ZA-170">
          <mxGeometry width="50" height="50" relative="1" as="geometry">
            <mxPoint x="220" y="2180" as="sourcePoint" />
            <mxPoint x="500" y="2280" as="targetPoint" />
          </mxGeometry>
        </mxCell>
        <mxCell id="f029kMLpjCxWXJ2SP4ZA-173" value="" style="endArrow=none;dashed=1;html=1;rounded=0;entryX=0;entryY=0.5;entryDx=0;entryDy=0;exitX=1;exitY=0.5;exitDx=0;exitDy=0;edgeStyle=orthogonalEdgeStyle;curved=1;strokeWidth=2;fillColor=#e51400;strokeColor=#B20000;" edge="1" parent="1" source="f029kMLpjCxWXJ2SP4ZA-123" target="f029kMLpjCxWXJ2SP4ZA-131">
          <mxGeometry width="50" height="50" relative="1" as="geometry">
            <mxPoint x="250" y="2130" as="sourcePoint" />
            <mxPoint x="530" y="2260" as="targetPoint" />
          </mxGeometry>
        </mxCell>
        <mxCell id="f029kMLpjCxWXJ2SP4ZA-174" value="" style="endArrow=none;dashed=1;html=1;rounded=0;entryX=0;entryY=0.5;entryDx=0;entryDy=0;exitX=1;exitY=0.5;exitDx=0;exitDy=0;edgeStyle=orthogonalEdgeStyle;curved=1;strokeWidth=2;fillColor=#0050ef;strokeColor=#001DBC;" edge="1" parent="1" source="f029kMLpjCxWXJ2SP4ZA-123" target="f029kMLpjCxWXJ2SP4ZA-129">
          <mxGeometry width="50" height="50" relative="1" as="geometry">
            <mxPoint x="250" y="2150" as="sourcePoint" />
            <mxPoint x="530" y="1680" as="targetPoint" />
          </mxGeometry>
        </mxCell>
        <mxCell id="f029kMLpjCxWXJ2SP4ZA-175" value="&lt;i&gt;Component&lt;/i&gt;" style="rounded=1;whiteSpace=wrap;html=1;" vertex="1" parent="1">
          <mxGeometry x="920" y="1660" width="150" height="40" as="geometry" />
        </mxCell>
        <mxCell id="f029kMLpjCxWXJ2SP4ZA-176" value="ImageComponent" style="rounded=1;whiteSpace=wrap;html=1;" vertex="1" parent="1">
          <mxGeometry x="940" y="1860" width="150" height="40" as="geometry" />
        </mxCell>
        <mxCell id="f029kMLpjCxWXJ2SP4ZA-178" value="" style="endArrow=none;dashed=1;html=1;dashPattern=1 3;strokeWidth=2;rounded=0;exitX=0;exitY=0.5;exitDx=0;exitDy=0;curved=1;edgeStyle=orthogonalEdgeStyle;entryX=1;entryY=0.5;entryDx=0;entryDy=0;" edge="1" parent="1" source="f029kMLpjCxWXJ2SP4ZA-176" target="f029kMLpjCxWXJ2SP4ZA-130">
          <mxGeometry width="50" height="50" relative="1" as="geometry">
            <mxPoint x="990" y="1810" as="sourcePoint" />
            <mxPoint x="830" y="1860" as="targetPoint" />
          </mxGeometry>
        </mxCell>
        <mxCell id="f029kMLpjCxWXJ2SP4ZA-179" value="" style="endArrow=none;dashed=1;html=1;dashPattern=1 3;strokeWidth=2;rounded=0;exitX=0;exitY=0.5;exitDx=0;exitDy=0;curved=1;edgeStyle=orthogonalEdgeStyle;entryX=1;entryY=0.5;entryDx=0;entryDy=0;" edge="1" parent="1" source="f029kMLpjCxWXJ2SP4ZA-176" target="f029kMLpjCxWXJ2SP4ZA-141">
          <mxGeometry width="50" height="50" relative="1" as="geometry">
            <mxPoint x="1060" y="1900" as="sourcePoint" />
            <mxPoint x="650" y="1750" as="targetPoint" />
          </mxGeometry>
        </mxCell>
        <mxCell id="f029kMLpjCxWXJ2SP4ZA-180" value="" style="endArrow=none;dashed=1;html=1;dashPattern=1 3;strokeWidth=2;rounded=0;exitX=0;exitY=0.5;exitDx=0;exitDy=0;curved=1;edgeStyle=orthogonalEdgeStyle;entryX=1;entryY=0.5;entryDx=0;entryDy=0;" edge="1" parent="1" source="f029kMLpjCxWXJ2SP4ZA-176" target="f029kMLpjCxWXJ2SP4ZA-145">
          <mxGeometry width="50" height="50" relative="1" as="geometry">
            <mxPoint x="1080" y="1900" as="sourcePoint" />
            <mxPoint x="670" y="1900" as="targetPoint" />
          </mxGeometry>
        </mxCell>
        <mxCell id="f029kMLpjCxWXJ2SP4ZA-181" value="" style="endArrow=none;dashed=1;html=1;dashPattern=1 3;strokeWidth=2;rounded=0;exitX=0;exitY=0.5;exitDx=0;exitDy=0;curved=1;edgeStyle=orthogonalEdgeStyle;entryX=1;entryY=0;entryDx=0;entryDy=0;" edge="1" parent="1" source="f029kMLpjCxWXJ2SP4ZA-176" target="f029kMLpjCxWXJ2SP4ZA-150">
          <mxGeometry width="50" height="50" relative="1" as="geometry">
            <mxPoint x="1190" y="1930" as="sourcePoint" />
            <mxPoint x="780" y="1980" as="targetPoint" />
          </mxGeometry>
        </mxCell>
        <mxCell id="f029kMLpjCxWXJ2SP4ZA-183" value="" style="endArrow=none;dashed=1;html=1;dashPattern=1 3;strokeWidth=2;rounded=0;exitX=0.25;exitY=1;exitDx=0;exitDy=0;curved=1;edgeStyle=orthogonalEdgeStyle;entryX=1;entryY=0.5;entryDx=0;entryDy=0;" edge="1" parent="1" source="f029kMLpjCxWXJ2SP4ZA-176" target="f029kMLpjCxWXJ2SP4ZA-170">
          <mxGeometry width="50" height="50" relative="1" as="geometry">
            <mxPoint x="1240" y="2260" as="sourcePoint" />
            <mxPoint x="830" y="2310" as="targetPoint" />
            <Array as="points">
              <mxPoint x="980" y="1900" />
              <mxPoint x="980" y="2280" />
            </Array>
          </mxGeometry>
        </mxCell>
        <mxCell id="f029kMLpjCxWXJ2SP4ZA-184" value="PlayerEntity" style="rounded=1;whiteSpace=wrap;html=1;" vertex="1" parent="1">
          <mxGeometry x="520" y="1040" width="120" height="60" as="geometry" />
        </mxCell>
        <mxCell id="f029kMLpjCxWXJ2SP4ZA-185" value="CanvasEntity" style="rounded=1;whiteSpace=wrap;html=1;" vertex="1" parent="1">
          <mxGeometry x="520" y="760" width="120" height="60" as="geometry" />
        </mxCell>
        <mxCell id="f029kMLpjCxWXJ2SP4ZA-186" value="PlayerRocketEntities" style="rounded=1;whiteSpace=wrap;html=1;" vertex="1" parent="1">
          <mxGeometry x="520" y="1110" width="120" height="60" as="geometry" />
        </mxCell>
        <mxCell id="f029kMLpjCxWXJ2SP4ZA-187" value="AlienEntities" style="rounded=1;whiteSpace=wrap;html=1;" vertex="1" parent="1">
          <mxGeometry x="520" y="1180" width="120" height="60" as="geometry" />
        </mxCell>
        <mxCell id="f029kMLpjCxWXJ2SP4ZA-188" value="AlienRocketEntities" style="rounded=1;whiteSpace=wrap;html=1;" vertex="1" parent="1">
          <mxGeometry x="520" y="1250" width="120" height="60" as="geometry" />
        </mxCell>
        <mxCell id="f029kMLpjCxWXJ2SP4ZA-189" value="AlienSaucerEntity" style="rounded=1;whiteSpace=wrap;html=1;" vertex="1" parent="1">
          <mxGeometry x="520" y="1320" width="120" height="60" as="geometry" />
        </mxCell>
        <mxCell id="f029kMLpjCxWXJ2SP4ZA-190" value="ShieldEntity" style="rounded=1;whiteSpace=wrap;html=1;" vertex="1" parent="1">
          <mxGeometry x="520" y="830" width="120" height="60" as="geometry" />
        </mxCell>
        <mxCell id="f029kMLpjCxWXJ2SP4ZA-191" value="FinishLineEntity" style="rounded=1;whiteSpace=wrap;html=1;" vertex="1" parent="1">
          <mxGeometry x="520" y="900" width="120" height="60" as="geometry" />
        </mxCell>
        <mxCell id="f029kMLpjCxWXJ2SP4ZA-192" value="CeilingLineEntity" style="rounded=1;whiteSpace=wrap;html=1;" vertex="1" parent="1">
          <mxGeometry x="520" y="970" width="120" height="60" as="geometry" />
        </mxCell>
        <mxCell id="f029kMLpjCxWXJ2SP4ZA-193" value="" style="endArrow=none;dashed=1;html=1;rounded=0;entryX=0;entryY=0.5;entryDx=0;entryDy=0;exitX=1;exitY=0.5;exitDx=0;exitDy=0;edgeStyle=orthogonalEdgeStyle;curved=1;" edge="1" parent="1" source="f029kMLpjCxWXJ2SP4ZA-25" target="f029kMLpjCxWXJ2SP4ZA-185">
          <mxGeometry width="50" height="50" relative="1" as="geometry">
            <mxPoint x="270" y="920" as="sourcePoint" />
            <mxPoint x="550" y="910" as="targetPoint" />
          </mxGeometry>
        </mxCell>
        <mxCell id="f029kMLpjCxWXJ2SP4ZA-194" value="" style="endArrow=none;dashed=1;html=1;rounded=0;entryX=0;entryY=0.5;entryDx=0;entryDy=0;exitX=1;exitY=0.5;exitDx=0;exitDy=0;edgeStyle=orthogonalEdgeStyle;curved=1;" edge="1" parent="1" source="f029kMLpjCxWXJ2SP4ZA-26" target="f029kMLpjCxWXJ2SP4ZA-184">
          <mxGeometry width="50" height="50" relative="1" as="geometry">
            <mxPoint x="260" y="850" as="sourcePoint" />
            <mxPoint x="540" y="850" as="targetPoint" />
          </mxGeometry>
        </mxCell>
        <mxCell id="f029kMLpjCxWXJ2SP4ZA-195" value="" style="endArrow=none;dashed=1;html=1;rounded=0;entryX=0;entryY=0.5;entryDx=0;entryDy=0;exitX=1;exitY=0.5;exitDx=0;exitDy=0;edgeStyle=orthogonalEdgeStyle;curved=1;" edge="1" parent="1" source="f029kMLpjCxWXJ2SP4ZA-26" target="f029kMLpjCxWXJ2SP4ZA-186">
          <mxGeometry width="50" height="50" relative="1" as="geometry">
            <mxPoint x="250" y="840" as="sourcePoint" />
            <mxPoint x="530" y="1050" as="targetPoint" />
          </mxGeometry>
        </mxCell>
        <mxCell id="f029kMLpjCxWXJ2SP4ZA-196" value="" style="endArrow=none;dashed=1;html=1;rounded=0;entryX=0;entryY=0.5;entryDx=0;entryDy=0;exitX=1;exitY=0.5;exitDx=0;exitDy=0;edgeStyle=orthogonalEdgeStyle;curved=1;" edge="1" parent="1" source="f029kMLpjCxWXJ2SP4ZA-27" target="f029kMLpjCxWXJ2SP4ZA-187">
          <mxGeometry width="50" height="50" relative="1" as="geometry">
            <mxPoint x="220" y="920" as="sourcePoint" />
            <mxPoint x="500" y="1200" as="targetPoint" />
          </mxGeometry>
        </mxCell>
        <mxCell id="f029kMLpjCxWXJ2SP4ZA-197" value="" style="endArrow=none;dashed=1;html=1;rounded=0;entryX=0;entryY=0.5;entryDx=0;entryDy=0;exitX=1;exitY=0.5;exitDx=0;exitDy=0;edgeStyle=orthogonalEdgeStyle;curved=1;" edge="1" parent="1" source="f029kMLpjCxWXJ2SP4ZA-27" target="f029kMLpjCxWXJ2SP4ZA-188">
          <mxGeometry width="50" height="50" relative="1" as="geometry">
            <mxPoint x="230" y="950" as="sourcePoint" />
            <mxPoint x="510" y="1230" as="targetPoint" />
          </mxGeometry>
        </mxCell>
        <mxCell id="f029kMLpjCxWXJ2SP4ZA-198" value="" style="endArrow=none;dashed=1;html=1;rounded=0;entryX=0;entryY=0.5;entryDx=0;entryDy=0;exitX=1;exitY=0.5;exitDx=0;exitDy=0;edgeStyle=orthogonalEdgeStyle;curved=1;" edge="1" parent="1" source="f029kMLpjCxWXJ2SP4ZA-28" target="f029kMLpjCxWXJ2SP4ZA-184">
          <mxGeometry width="50" height="50" relative="1" as="geometry">
            <mxPoint x="230" y="970" as="sourcePoint" />
            <mxPoint x="510" y="1320" as="targetPoint" />
          </mxGeometry>
        </mxCell>
        <mxCell id="f029kMLpjCxWXJ2SP4ZA-199" value="" style="endArrow=none;dashed=1;html=1;rounded=0;entryX=0;entryY=0.5;entryDx=0;entryDy=0;exitX=1;exitY=0.5;exitDx=0;exitDy=0;edgeStyle=orthogonalEdgeStyle;curved=1;" edge="1" parent="1" source="f029kMLpjCxWXJ2SP4ZA-28" target="f029kMLpjCxWXJ2SP4ZA-191">
          <mxGeometry width="50" height="50" relative="1" as="geometry">
            <mxPoint x="230" y="1050" as="sourcePoint" />
            <mxPoint x="510" y="1120" as="targetPoint" />
          </mxGeometry>
        </mxCell>
        <mxCell id="f029kMLpjCxWXJ2SP4ZA-200" value="" style="endArrow=none;dashed=1;html=1;rounded=0;entryX=0;entryY=0.5;entryDx=0;entryDy=0;exitX=1;exitY=0.5;exitDx=0;exitDy=0;edgeStyle=orthogonalEdgeStyle;curved=1;" edge="1" parent="1" source="f029kMLpjCxWXJ2SP4ZA-28" target="f029kMLpjCxWXJ2SP4ZA-192">
          <mxGeometry width="50" height="50" relative="1" as="geometry">
            <mxPoint x="250" y="1030" as="sourcePoint" />
            <mxPoint x="530" y="960" as="targetPoint" />
          </mxGeometry>
        </mxCell>
        <mxCell id="f029kMLpjCxWXJ2SP4ZA-201" value="" style="endArrow=none;dashed=1;html=1;rounded=0;entryX=0;entryY=0.5;entryDx=0;entryDy=0;exitX=1;exitY=0.5;exitDx=0;exitDy=0;edgeStyle=orthogonalEdgeStyle;curved=1;" edge="1" parent="1" source="f029kMLpjCxWXJ2SP4ZA-28" target="f029kMLpjCxWXJ2SP4ZA-186">
          <mxGeometry width="50" height="50" relative="1" as="geometry">
            <mxPoint x="230" y="1038.89" as="sourcePoint" />
            <mxPoint x="510" y="1038.89" as="targetPoint" />
          </mxGeometry>
        </mxCell>
        <mxCell id="f029kMLpjCxWXJ2SP4ZA-202" value="" style="endArrow=none;dashed=1;html=1;rounded=0;entryX=0;entryY=0.5;entryDx=0;entryDy=0;exitX=1;exitY=0.5;exitDx=0;exitDy=0;edgeStyle=orthogonalEdgeStyle;curved=1;" edge="1" parent="1" source="f029kMLpjCxWXJ2SP4ZA-28" target="f029kMLpjCxWXJ2SP4ZA-187">
          <mxGeometry width="50" height="50" relative="1" as="geometry">
            <mxPoint x="220" y="1040" as="sourcePoint" />
            <mxPoint x="500" y="1180" as="targetPoint" />
          </mxGeometry>
        </mxCell>
        <mxCell id="f029kMLpjCxWXJ2SP4ZA-203" value="" style="endArrow=none;dashed=1;html=1;rounded=0;entryX=0;entryY=0.5;entryDx=0;entryDy=0;exitX=1;exitY=0.5;exitDx=0;exitDy=0;edgeStyle=orthogonalEdgeStyle;curved=1;" edge="1" parent="1" source="f029kMLpjCxWXJ2SP4ZA-28" target="f029kMLpjCxWXJ2SP4ZA-188">
          <mxGeometry width="50" height="50" relative="1" as="geometry">
            <mxPoint x="230" y="1040" as="sourcePoint" />
            <mxPoint x="510" y="1250" as="targetPoint" />
          </mxGeometry>
        </mxCell>
        <mxCell id="f029kMLpjCxWXJ2SP4ZA-204" value="" style="endArrow=none;dashed=1;html=1;rounded=0;entryX=0;entryY=0.5;entryDx=0;entryDy=0;exitX=1;exitY=0.5;exitDx=0;exitDy=0;edgeStyle=orthogonalEdgeStyle;curved=1;" edge="1" parent="1" source="f029kMLpjCxWXJ2SP4ZA-28" target="f029kMLpjCxWXJ2SP4ZA-189">
          <mxGeometry width="50" height="50" relative="1" as="geometry">
            <mxPoint x="220" y="1030" as="sourcePoint" />
            <mxPoint x="500" y="1310" as="targetPoint" />
          </mxGeometry>
        </mxCell>
        <mxCell id="f029kMLpjCxWXJ2SP4ZA-205" value="" style="endArrow=none;dashed=1;html=1;rounded=0;entryX=0;entryY=0.5;entryDx=0;entryDy=0;exitX=1;exitY=0.5;exitDx=0;exitDy=0;edgeStyle=orthogonalEdgeStyle;curved=1;" edge="1" parent="1" source="f029kMLpjCxWXJ2SP4ZA-28" target="f029kMLpjCxWXJ2SP4ZA-190">
          <mxGeometry width="50" height="50" relative="1" as="geometry">
            <mxPoint x="220" y="1020" as="sourcePoint" />
            <mxPoint x="500" y="1370" as="targetPoint" />
          </mxGeometry>
        </mxCell>
        <mxCell id="f029kMLpjCxWXJ2SP4ZA-206" value="" style="endArrow=none;dashed=1;html=1;rounded=0;entryX=0;entryY=0.5;entryDx=0;entryDy=0;exitX=1;exitY=0.5;exitDx=0;exitDy=0;edgeStyle=orthogonalEdgeStyle;curved=1;" edge="1" parent="1" source="f029kMLpjCxWXJ2SP4ZA-29" target="f029kMLpjCxWXJ2SP4ZA-190">
          <mxGeometry width="50" height="50" relative="1" as="geometry">
            <mxPoint x="230" y="1090" as="sourcePoint" />
            <mxPoint x="510" y="1440" as="targetPoint" />
          </mxGeometry>
        </mxCell>
        <mxCell id="f029kMLpjCxWXJ2SP4ZA-207" value="" style="endArrow=none;dashed=1;html=1;rounded=0;entryX=0;entryY=0.5;entryDx=0;entryDy=0;exitX=1;exitY=0.5;exitDx=0;exitDy=0;edgeStyle=orthogonalEdgeStyle;curved=1;" edge="1" parent="1" source="f029kMLpjCxWXJ2SP4ZA-29" target="f029kMLpjCxWXJ2SP4ZA-191">
          <mxGeometry width="50" height="50" relative="1" as="geometry">
            <mxPoint x="250" y="1105" as="sourcePoint" />
            <mxPoint x="530" y="895" as="targetPoint" />
          </mxGeometry>
        </mxCell>
        <mxCell id="f029kMLpjCxWXJ2SP4ZA-208" value="" style="endArrow=none;dashed=1;html=1;rounded=0;entryX=0;entryY=0.5;entryDx=0;entryDy=0;exitX=1;exitY=0.5;exitDx=0;exitDy=0;edgeStyle=orthogonalEdgeStyle;curved=1;" edge="1" parent="1" source="f029kMLpjCxWXJ2SP4ZA-29" target="f029kMLpjCxWXJ2SP4ZA-184">
          <mxGeometry width="50" height="50" relative="1" as="geometry">
            <mxPoint x="240" y="1100" as="sourcePoint" />
            <mxPoint x="520" y="960" as="targetPoint" />
          </mxGeometry>
        </mxCell>
        <mxCell id="f029kMLpjCxWXJ2SP4ZA-209" value="" style="endArrow=none;dashed=1;html=1;rounded=0;entryX=0;entryY=0.5;entryDx=0;entryDy=0;exitX=1;exitY=0.5;exitDx=0;exitDy=0;edgeStyle=orthogonalEdgeStyle;curved=1;" edge="1" parent="1" source="f029kMLpjCxWXJ2SP4ZA-29" target="f029kMLpjCxWXJ2SP4ZA-187">
          <mxGeometry width="50" height="50" relative="1" as="geometry">
            <mxPoint x="240" y="1110" as="sourcePoint" />
            <mxPoint x="520" y="1180" as="targetPoint" />
          </mxGeometry>
        </mxCell>
        <mxCell id="f029kMLpjCxWXJ2SP4ZA-210" value="" style="endArrow=none;dashed=1;html=1;rounded=0;entryX=0;entryY=0.5;entryDx=0;entryDy=0;exitX=1;exitY=0.5;exitDx=0;exitDy=0;edgeStyle=orthogonalEdgeStyle;curved=1;" edge="1" parent="1" source="f029kMLpjCxWXJ2SP4ZA-29" target="f029kMLpjCxWXJ2SP4ZA-189">
          <mxGeometry width="50" height="50" relative="1" as="geometry">
            <mxPoint x="230" y="1110" as="sourcePoint" />
            <mxPoint x="510" y="1250" as="targetPoint" />
          </mxGeometry>
        </mxCell>
        <mxCell id="f029kMLpjCxWXJ2SP4ZA-211" value="" style="endArrow=none;dashed=1;html=1;rounded=0;entryX=0;entryY=0.5;entryDx=0;entryDy=0;exitX=1;exitY=0.5;exitDx=0;exitDy=0;edgeStyle=orthogonalEdgeStyle;curved=1;" edge="1" parent="1" source="f029kMLpjCxWXJ2SP4ZA-29" target="f029kMLpjCxWXJ2SP4ZA-186">
          <mxGeometry width="50" height="50" relative="1" as="geometry">
            <mxPoint x="230" y="1090" as="sourcePoint" />
            <mxPoint x="510" y="1370" as="targetPoint" />
          </mxGeometry>
        </mxCell>
        <mxCell id="f029kMLpjCxWXJ2SP4ZA-212" value="" style="endArrow=none;dashed=1;html=1;rounded=0;entryX=0;entryY=0.5;entryDx=0;entryDy=0;exitX=1;exitY=0.5;exitDx=0;exitDy=0;edgeStyle=orthogonalEdgeStyle;curved=1;" edge="1" parent="1" source="f029kMLpjCxWXJ2SP4ZA-29" target="f029kMLpjCxWXJ2SP4ZA-188">
          <mxGeometry width="50" height="50" relative="1" as="geometry">
            <mxPoint x="230" y="1080" as="sourcePoint" />
            <mxPoint x="510" y="1360" as="targetPoint" />
          </mxGeometry>
        </mxCell>
        <mxCell id="f029kMLpjCxWXJ2SP4ZA-213" value="" style="endArrow=none;dashed=1;html=1;rounded=0;entryX=0;entryY=0.5;entryDx=0;entryDy=0;exitX=1;exitY=0.5;exitDx=0;exitDy=0;edgeStyle=orthogonalEdgeStyle;curved=1;" edge="1" parent="1" source="f029kMLpjCxWXJ2SP4ZA-30" target="f029kMLpjCxWXJ2SP4ZA-184">
          <mxGeometry width="50" height="50" relative="1" as="geometry">
            <mxPoint x="220" y="1120" as="sourcePoint" />
            <mxPoint x="500" y="1400" as="targetPoint" />
          </mxGeometry>
        </mxCell>
        <mxCell id="f029kMLpjCxWXJ2SP4ZA-214" value="" style="endArrow=none;dashed=1;html=1;rounded=0;entryX=0;entryY=0.5;entryDx=0;entryDy=0;exitX=1;exitY=0.5;exitDx=0;exitDy=0;edgeStyle=orthogonalEdgeStyle;curved=1;" edge="1" parent="1" source="f029kMLpjCxWXJ2SP4ZA-30" target="f029kMLpjCxWXJ2SP4ZA-187">
          <mxGeometry width="50" height="50" relative="1" as="geometry">
            <mxPoint x="240" y="1160" as="sourcePoint" />
            <mxPoint x="520" y="1090" as="targetPoint" />
          </mxGeometry>
        </mxCell>
        <mxCell id="f029kMLpjCxWXJ2SP4ZA-215" value="" style="endArrow=none;dashed=1;html=1;rounded=0;entryX=0;entryY=0.5;entryDx=0;entryDy=0;exitX=1;exitY=0.5;exitDx=0;exitDy=0;edgeStyle=orthogonalEdgeStyle;curved=1;" edge="1" parent="1" source="f029kMLpjCxWXJ2SP4ZA-30" target="f029kMLpjCxWXJ2SP4ZA-188">
          <mxGeometry width="50" height="50" relative="1" as="geometry">
            <mxPoint x="240" y="1160" as="sourcePoint" />
            <mxPoint x="520" y="1230" as="targetPoint" />
          </mxGeometry>
        </mxCell>
        <mxCell id="f029kMLpjCxWXJ2SP4ZA-216" value="" style="endArrow=none;dashed=1;html=1;rounded=0;entryX=0;entryY=0.5;entryDx=0;entryDy=0;exitX=1;exitY=0.5;exitDx=0;exitDy=0;edgeStyle=orthogonalEdgeStyle;curved=1;" edge="1" parent="1" source="f029kMLpjCxWXJ2SP4ZA-30" target="f029kMLpjCxWXJ2SP4ZA-186">
          <mxGeometry width="50" height="50" relative="1" as="geometry">
            <mxPoint x="230" y="1169.97" as="sourcePoint" />
            <mxPoint x="510" y="1309.97" as="targetPoint" />
          </mxGeometry>
        </mxCell>
        <mxCell id="f029kMLpjCxWXJ2SP4ZA-217" value="" style="endArrow=none;dashed=1;html=1;rounded=0;entryX=0;entryY=0.5;entryDx=0;entryDy=0;exitX=1;exitY=0.5;exitDx=0;exitDy=0;edgeStyle=orthogonalEdgeStyle;curved=1;" edge="1" parent="1" source="f029kMLpjCxWXJ2SP4ZA-30" target="f029kMLpjCxWXJ2SP4ZA-189">
          <mxGeometry width="50" height="50" relative="1" as="geometry">
            <mxPoint x="250" y="1190" as="sourcePoint" />
            <mxPoint x="530" y="1190" as="targetPoint" />
          </mxGeometry>
        </mxCell>
        <mxCell id="f029kMLpjCxWXJ2SP4ZA-218" value="" style="endArrow=none;dashed=1;html=1;rounded=0;entryX=0;entryY=0.5;entryDx=0;entryDy=0;exitX=1;exitY=0.5;exitDx=0;exitDy=0;edgeStyle=orthogonalEdgeStyle;curved=1;" edge="1" parent="1" source="f029kMLpjCxWXJ2SP4ZA-31" target="f029kMLpjCxWXJ2SP4ZA-184">
          <mxGeometry width="50" height="50" relative="1" as="geometry">
            <mxPoint x="240" y="1160" as="sourcePoint" />
            <mxPoint x="520" y="1370" as="targetPoint" />
          </mxGeometry>
        </mxCell>
        <mxCell id="f029kMLpjCxWXJ2SP4ZA-219" value="" style="endArrow=none;dashed=1;html=1;rounded=0;entryX=0;entryY=0.5;entryDx=0;entryDy=0;exitX=1;exitY=0.5;exitDx=0;exitDy=0;edgeStyle=orthogonalEdgeStyle;curved=1;" edge="1" parent="1" source="f029kMLpjCxWXJ2SP4ZA-31" target="f029kMLpjCxWXJ2SP4ZA-186">
          <mxGeometry width="50" height="50" relative="1" as="geometry">
            <mxPoint x="240" y="1230" as="sourcePoint" />
            <mxPoint x="520" y="1090" as="targetPoint" />
          </mxGeometry>
        </mxCell>
        <mxCell id="f029kMLpjCxWXJ2SP4ZA-220" value="" style="endArrow=none;dashed=1;html=1;rounded=0;entryX=0;entryY=0.5;entryDx=0;entryDy=0;exitX=1;exitY=0.5;exitDx=0;exitDy=0;edgeStyle=orthogonalEdgeStyle;curved=1;" edge="1" parent="1" source="f029kMLpjCxWXJ2SP4ZA-31" target="f029kMLpjCxWXJ2SP4ZA-187">
          <mxGeometry width="50" height="50" relative="1" as="geometry">
            <mxPoint x="230" y="1239.97" as="sourcePoint" />
            <mxPoint x="510" y="1379.97" as="targetPoint" />
          </mxGeometry>
        </mxCell>
        <mxCell id="f029kMLpjCxWXJ2SP4ZA-221" value="" style="endArrow=none;dashed=1;html=1;rounded=0;entryX=0;entryY=0.5;entryDx=0;entryDy=0;exitX=1;exitY=0.5;exitDx=0;exitDy=0;edgeStyle=orthogonalEdgeStyle;curved=1;" edge="1" parent="1" source="f029kMLpjCxWXJ2SP4ZA-31" target="f029kMLpjCxWXJ2SP4ZA-190">
          <mxGeometry width="50" height="50" relative="1" as="geometry">
            <mxPoint x="230" y="1239.97" as="sourcePoint" />
            <mxPoint x="510" y="1309.97" as="targetPoint" />
          </mxGeometry>
        </mxCell>
        <mxCell id="f029kMLpjCxWXJ2SP4ZA-222" value="" style="endArrow=none;dashed=1;html=1;rounded=0;entryX=0;entryY=0.5;entryDx=0;entryDy=0;exitX=1;exitY=0.5;exitDx=0;exitDy=0;edgeStyle=orthogonalEdgeStyle;curved=1;" edge="1" parent="1" source="f029kMLpjCxWXJ2SP4ZA-31" target="f029kMLpjCxWXJ2SP4ZA-189">
          <mxGeometry width="50" height="50" relative="1" as="geometry">
            <mxPoint x="240" y="1260" as="sourcePoint" />
            <mxPoint x="520" y="1260" as="targetPoint" />
          </mxGeometry>
        </mxCell>
        <mxCell id="f029kMLpjCxWXJ2SP4ZA-223" value="" style="endArrow=none;dashed=1;html=1;rounded=0;entryX=0;entryY=0.5;entryDx=0;entryDy=0;exitX=1;exitY=0.5;exitDx=0;exitDy=0;edgeStyle=orthogonalEdgeStyle;curved=1;" edge="1" parent="1" source="f029kMLpjCxWXJ2SP4ZA-31" target="f029kMLpjCxWXJ2SP4ZA-188">
          <mxGeometry width="50" height="50" relative="1" as="geometry">
            <mxPoint x="200" y="1279.98" as="sourcePoint" />
            <mxPoint x="480" y="1419.98" as="targetPoint" />
          </mxGeometry>
        </mxCell>
        <mxCell id="f029kMLpjCxWXJ2SP4ZA-224" value="" style="endArrow=none;dashed=1;html=1;dashPattern=1 3;strokeWidth=2;rounded=0;exitX=0;exitY=0.5;exitDx=0;exitDy=0;curved=1;edgeStyle=orthogonalEdgeStyle;entryX=1;entryY=0;entryDx=0;entryDy=0;" edge="1" parent="1" source="f029kMLpjCxWXJ2SP4ZA-176" target="f029kMLpjCxWXJ2SP4ZA-160">
          <mxGeometry width="50" height="50" relative="1" as="geometry">
            <mxPoint x="980" y="1900" as="sourcePoint" />
            <mxPoint x="710" y="2030" as="targetPoint" />
          </mxGeometry>
        </mxCell>
      </root>
    </mxGraphModel>
  </diagram>
</mxfile>
